<svg xmlns="http://www.w3.org/2000/svg" xmlns:xlink="http://www.w3.org/1999/xlink" version="1.1" x="0px" y="0px" viewBox="0 0 100 100" fill="#6f6d66" style="enable-background:new 0 0 100 100;" xml:space="preserve"><path d="M25.1,34.1c-6.3,0-11.4-5.1-11.4-11.4s5.1-11.4,11.4-11.4s11.4,5.1,11.4,11.4S31.4,34.1,25.1,34.1z M25.1,14.4  c-4.6,0-8.4,3.8-8.4,8.4s3.8,8.4,8.4,8.4s8.4-3.8,8.4-8.4S29.7,14.4,25.1,14.4z M34.2,65.9c0-0.8-0.7-1.5-1.5-1.5s-1.5,0.7-1.5,1.5  v21.5H18.9v-23h-9V50c0-5.6,4.6-10.2,10.2-10.2H30c5.6,0,10.2,4.6,10.2,10.2c0,0.8,0.7,1.5,1.5,1.5s1.5-0.7,1.5-1.5  c0-7.3-5.9-13.2-13.2-13.2h-9.8C12.9,36.8,7,42.7,7,50v17.4h9v23h18.3V65.9z M78.4,41.3c-5.6,0-10.1-4.6-10.1-10.1S72.8,21,78.4,21  s10.1,4.6,10.1,10.1S84,41.3,78.4,41.3z M78.4,24c-3.9,0-7.1,3.2-7.1,7.1c0,3.9,3.2,7.1,7.1,7.1s7.1-3.2,7.1-7.1  C85.6,27.2,82.4,24,78.4,24z M86.6,70.3h7.9V54.8c0-6.5-5.3-11.8-11.8-11.8h-8.6c-4.7,0-8.9,2.8-10.8,7.1c-0.3,0.8,0,1.6,0.8,2  c0.8,0.3,1.6,0,2-0.8c1.4-3.2,4.5-5.3,8-5.3h8.6c4.8,0,8.8,3.9,8.8,8.8v12.5h-7.9v20.1H73.2V68.8c0-0.8-0.7-1.5-1.5-1.5  s-1.5,0.7-1.5,1.5v21.6h16.4V70.3z M52.6,52.2c-4.4,0-8-3.6-8-8s3.6-8,8-8s8,3.6,8,8S57,52.2,52.6,52.2z M52.6,39.3  c-2.7,0-5,2.2-5,5s2.2,5,5,5s5-2.2,5-5S55.3,39.3,52.6,39.3z M59.1,90.4h-13v-15h-5.9V63.4c0-5.1,4.1-9.2,9.2-9.2h6.5  c5.1,0,9.2,4.1,9.2,9.2v11.9h-5.9V90.4z M49.1,87.4h7v-15H62v-8.9c0-3.4-2.8-6.2-6.2-6.2h-6.5c-3.4,0-6.2,2.8-6.2,6.2v8.9h5.9V87.4z  "/></svg>