<svg version="1.1" class="svg" x="0" y="0" viewBox="0, 0, 224, 100" xmlns="http://www.w3.org/2000/svg" xmlns:xlink="http://www.w3.org/1999/xlink" width="140"  height="61.99999999999999" >


                <path id="bsu-logoSegment2" d="M7.2,36.4 L-0,47 L6.7,67.4 L33,67.4 L66.2,14 L17.4,48.6 z" fill="#7AB800"></path>
                <path id="bsu-logoSegment1" d="M33,67.4 L6.7,67.4 L0,47 z" fill="#69A618"></path>
                <path id="bsu-logoSegment4" d="M66.2,14 L17.4,48.6 L33,67.4 L63.4,67.4 L86.4,33.5 z" fill="#7AB800"></path>
                <path id="bsu-logoSegment3" d="M33,67.4 L17.4,48.6 L66.2,14 z" fill="#69A618"></path>
                <path id="bsu-logoSegment5" d="M86.4,33.5 L33,67.4 L63.4,67.4 z" fill="#5B8F22"></path>


                <path id="bsu-logoEyeOutside" d="M74.6,27.8 C74.6,30.9 72,33.5 68.8,33.5 C65.7,33.5 63.1,30.9 63.1,27.8 C63.1,24.6 65.7,22 68.8,22 C72,22 74.6,24.6 74.6,27.8 z" fill="#FFFFFF"></path>
                <path id="bsu-logoEyeInside" d="M68.8,24.9 C70.4,24.9 71.7,26.2 71.7,27.8 C71.7,29.3 70.4,30.6 68.8,30.6 C67.3,30.6 66,29.3 66,27.8 C66,26.2 67.3,24.9 68.8,24.9 z"></path>
                <path id="bsu-logoText" class="text" d="M105,33 C110.4,33 114.8,34.6 118.2,37.7 L114.2,43.1 C111.4,40.5 107.8,39.4 104.3,39.4 C101.3,39.4 99.5,40.7 99.5,42.7 C99.5,48.1 119,44.5 119,57.1 C119,63.3 114.5,68 105.4,68 C98.9,68 94.2,65.8 91,62.6 L94.9,57 C97.3,59.5 101,61.6 105.7,61.6 C109.7,61.6 111.6,59.8 111.6,57.8 C111.6,51.9 92.1,56.1 92.1,43.3 C92.1,37.6 97,33 105,33 z M206,39.3 C212.2,39.3 216.3,44.1 216.3,50.5 C216.3,56.8 212.2,61.6 206,61.6 C199.7,61.6 195.7,56.8 195.7,50.5 C195.7,44.1 199.7,39.3 206,39.3 z M206,32.9 C195.7,32.9 188.3,40.2 188.3,50.5 C188.3,60.7 195.7,68 206,68 C216.2,68 223.7,60.7 223.7,50.5 C223.7,40.2 216.2,32.9 206,32.9 z M137.3,40.7 L142.5,55.3 L132,55.3 L137.3,40.7 z M141.8,33.5 L132.7,33.5 L119.7,67.4 L127.8,67.4 L130,61.6 L144.5,61.6 L146.7,67.4 L154.8,67.4 L141.8,33.5 z M173.2,39.8 C176,39.8 178.2,41.6 178.2,44.4 C178.2,47.2 176,48.9 173.2,48.9 L165.6,48.9 L165.6,39.8 L173.2,39.8 z M174.2,33.5 L158.4,33.5 L158.4,67.4 L165.6,67.4 L165.6,55.3 L174.2,55.3 C181.5,55.3 185.6,50.3 185.6,44.4 C185.6,38.5 181.6,33.5 174.2,33.5 z" fill="#FFFFFF"></path>
            </svg>