<?xml version="1.0" encoding="utf-8"?>
<!-- Generator: Adobe Illustrator 24.3.0, SVG Export Plug-In . SVG Version: 6.00 Build 0)  -->
<svg version="1.1" id="Layer_3" xmlns="http://www.w3.org/2000/svg" xmlns:xlink="http://www.w3.org/1999/xlink" x="0px" y="0px"
	 viewBox="0 0 100 100" style="enable-background:new 0 0 100 100;" xml:space="preserve">
<style type="text/css">
	.st0{fill:#6F6D66;}
</style>
<g>
	<g>
		<path class="st0" d="M66.6,22.5c0,16.4,0,32.7,0,49.1c1.1-0.6,2.1-1.2,3.2-1.8c-2.4-1.3-4.5-3.8-6.8-5.3c-2.7-1.8-5.7-3.4-8.7-4.7
			c-2.9-1.3-6.2-1.9-9-3.2c-2.7-1.3-3.2-2-3.6-4.7c-0.3-2.1,0-4.5,0-6.6c0-1.6-0.6-4.2,0.2-5.6c0.8-1.5,2.3-1.5,4.1-2
			c2.8-0.8,5.5-1.9,8.1-3.1c5.9-2.7,11.1-6.3,16-10.5c2.1-1.8-0.9-4.7-3-3c-6.8,5.9-14.4,10.2-23.1,12.7c-2.4,0.7-5.2,0.8-6.3,3.4
			C36.5,40,37.5,45,37.5,48c0,2.7-0.9,6.9,0.5,9.5c1.4,2.6,5.6,2.8,8,3.6c4.2,1.3,8.2,3,12,5.3c3.4,2,6.2,5.2,9.6,7.1
			c1.4,0.8,3.2-0.2,3.2-1.8c0-16.4,0-32.7,0-49.1C70.8,19.8,66.6,19.8,66.6,22.5z"/>
		<path class="st0" d="M39.7,54.9c-6.2,0-16.6,1.3-16.6-7.9c0-9.2,10.4-7.9,16.6-7.9c-0.7-0.7-1.4-1.4-2.1-2.1c0,6.6,0,13.3,0,19.9
			c0,2.7,4.2,2.7,4.2,0c0-6.6,0-13.3,0-19.9c0-1.1-1-2.1-2.1-2.1c-3.4,0-7-0.3-10.4,0.1c-5.9,0.8-10.4,6-10.4,11.9
			c0,5.8,4.3,10.8,9.9,11.8c3.5,0.7,7.4,0.2,10.9,0.2C42.4,59.1,42.4,54.9,39.7,54.9z"/>
		<path class="st0" d="M20.9,52.9c-6.9,0-6.9-11.7,0-11.7c-0.7-0.7-1.4-1.4-2.1-2.1c0,5.3,0,10.6,0,15.9c0,2.7,4.2,2.7,4.2,0
			c0-5.3,0-10.6,0-15.9c0-1.1-1-2.1-2.1-2.1c-12.3,0-12.3,20.1,0,20.1C23.6,57.1,23.6,52.9,20.9,52.9z"/>
		<path class="st0" d="M31.9,57.8c0.6,2.9,1.2,5.8,1.8,8.7c0.3,1.7,0.8,3.4,1,5.2c0.4,2.5-1.5,6.2-3.3,1.6c-1-2.5-1.2-5.7-1.7-8.4
			c-0.6-2.8-1.1-5.6-1.7-8.4c-0.5-2.6-4.6-1.5-4,1.1c0.8,4.2,1.7,8.3,2.5,12.5c0.8,4.2,1.9,10,7.6,9.3c5.2-0.6,5.3-6,4.5-10
			c-0.9-4.3-1.7-8.6-2.6-12.9C35.4,54,31.4,55.1,31.9,57.8L31.9,57.8z"/>
	</g>
	<path class="st0" d="M76.6,35.6c3-1.5,5.9-3,8.9-4.4c2.4-1.2,0.3-4.8-2.1-3.6c-3,1.5-5.9,3-8.9,4.4C72.1,33.2,74.2,36.9,76.6,35.6
		L76.6,35.6z"/>
	<path class="st0" d="M76.1,49.2c3.4,0,6.9,0,10.3,0c2.7,0,2.7-4.2,0-4.2c-3.4,0-6.9,0-10.3,0C73.3,45,73.3,49.2,76.1,49.2
		L76.1,49.2z"/>
	<path class="st0" d="M74.5,62.3c3,1.5,5.9,3,8.9,4.4c2.4,1.2,4.5-2.4,2.1-3.6c-3-1.5-5.9-3-8.9-4.4C74.2,57.4,72.1,61.1,74.5,62.3
		L74.5,62.3z"/>
</g>
</svg>
