<?xml version="1.0" encoding="utf-8"?>
<!-- Generator: Adobe Illustrator 24.3.0, SVG Export Plug-In . SVG Version: 6.00 Build 0)  -->
<svg version="1.1" id="Layer_2" xmlns="http://www.w3.org/2000/svg" xmlns:xlink="http://www.w3.org/1999/xlink" x="0px" y="0px"
	 viewBox="0 0 100 100" style="enable-background:new 0 0 100 100;" xml:space="preserve">
<style type="text/css">
	.st0{fill:none;stroke:#6F6D66;stroke-width:3;stroke-miterlimit:10;}
</style>
<g>
	<path class="st0" d="M35.4,61.6c0-1.7-0.6-3.1-1.7-4s-3.2-2-6.2-3c-6.2-2-10.9-4.1-13.9-6.3s-4.5-5.5-4.5-9.7c0-4.1,1.8-7.5,5.4-10
		s8.1-3.8,13.6-3.8c5.5,0,9.9,1.4,13.4,4.2c3.5,2.8,5.2,6.4,5.1,10.9l-0.1,0.2H35.4c0-2-0.7-3.6-2-4.8c-1.3-1.2-3.2-1.8-5.5-1.8
		c-2.3,0-4.1,0.5-5.4,1.5c-1.3,1-2,2.3-2,3.8c0,1.4,0.7,2.6,2,3.5c1.3,0.9,3.8,2,7.4,3.3c5.6,1.7,9.8,3.7,12.7,6.2
		c2.8,2.4,4.3,5.8,4.3,10.1c0,4.3-1.7,7.7-5.1,10.2c-3.4,2.5-7.9,3.7-13.4,3.7c-5.6,0-10.4-1.4-14.5-4.2c-4.1-2.8-6.1-6.9-6-12.1
		l0.1-0.2h11.1c0,2.8,0.8,4.9,2.3,6.1s3.9,1.8,7,1.8c2.4,0,4.1-0.5,5.3-1.4C34.8,64.4,35.4,63.1,35.4,61.6z"/>
	<path class="st0" d="M64.5,57.8v16.9H53V25.3h20c5.9,0,10.5,1.5,13.9,4.5s5.2,6.9,5.2,11.7c0,4.9-1.7,8.8-5.2,11.7
		c-3.4,3-8.1,4.5-13.9,4.5H64.5z M64.5,48.9h8.5c2.5,0,4.4-0.7,5.7-2c1.3-1.4,2-3.1,2-5.3c0-2.2-0.7-4-2-5.4
		c-1.3-1.4-3.2-2.1-5.7-2.1h-8.5V48.9z"/>
</g>
</svg>
